# MagicaVoxel @ Ephtracy

# group
o 

# material
mtllib RequestIcon.mtl
usemtl palette

# normals
vn -1 0 0
vn 1 0 0
vn 0 0 1
vn 0 0 -1
vn 0 -1 0
vn 0 1 0

# texcoords
vt 0.306641 0.5
vt 0.310547 0.5

# verts
v -5.1 3.1 -0.3
v -5.1 3.1 -0.4
v -5.1 3.2 -0.2
v -5.1 3.2 -0.3
v -5.1 3.2 -0.4
v -5.1 3.2 -0.5
v -5.1 3.3 -0.1
v -5.1 3.3 -0.2
v -5.1 3.3 -0.3
v -5.1 3.3 -0.4
v -5.1 3.3 -0.5
v -5.1 3.3 -0.6
v -5.1 3.4 5.96046e-008
v -5.1 3.4 -0.1
v -5.1 3.4 -0.2
v -5.1 3.4 -0.5
v -5.1 3.4 -0.6
v -5.1 3.4 -0.7
v -5.1 3.5 0.1
v -5.1 3.5 5.96046e-008
v -5.1 3.5 -0.1
v -5.1 3.5 -0.6
v -5.1 3.5 -0.7
v -5.1 3.5 -0.8
v -5.1 3.6 0.2
v -5.1 3.6 0.1
v -5.1 3.6 5.96046e-008
v -5.1 3.6 -0.7
v -5.1 3.6 -0.8
v -5.1 3.6 -0.9
v -5.1 3.7 0.3
v -5.1 3.7 0.2
v -5.1 3.7 0.1
v -5.1 3.7 -0.8
v -5.1 3.7 -0.9
v -5.1 3.7 -1
v -5.1 3.8 0.4
v -5.1 3.8 0.3
v -5.1 3.8 0.2
v -5.1 3.8 -0.9
v -5.1 3.8 -1
v -5.1 3.8 -1.1
v -5.1 4 0.5
v -5.1 4 0.4
v -5.1 4 0.3
v -5.1 4 -0.2
v -5.1 4 -0.5
v -5.1 4 -1
v -5.1 4 -1.1
v -5.1 4 -1.2
v -5.1 4.1 -0.1
v -5.1 4.1 -0.2
v -5.1 4.1 -0.5
v -5.1 4.1 -0.6
v -5.1 4.2 0.6
v -5.1 4.2 0.5
v -5.1 4.2 0.4
v -5.1 4.2 5.96046e-008
v -5.1 4.2 -0.1
v -5.1 4.2 -0.2
v -5.1 4.2 -0.5
v -5.1 4.2 -0.6
v -5.1 4.2 -0.7
v -5.1 4.2 -1.1
v -5.1 4.2 -1.2
v -5.1 4.2 -1.3
v -5.1 4.3 0.1
v -5.1 4.3 5.96046e-008
v -5.1 4.3 -0.1
v -5.1 4.3 -0.6
v -5.1 4.3 -0.7
v -5.1 4.3 -0.8
v -5.1 4.5 0.1
v -5.1 4.5 5.96046e-008
v -5.1 4.5 -0.1
v -5.1 4.5 -0.6
v -5.1 4.5 -0.7
v -5.1 4.5 -0.8
v -5.1 4.6 0.6
v -5.1 4.6 0.5
v -5.1 4.6 0.4
v -5.1 4.6 5.96046e-008
v -5.1 4.6 -0.1
v -5.1 4.6 -0.2
v -5.1 4.6 -0.5
v -5.1 4.6 -0.6
v -5.1 4.6 -0.7
v -5.1 4.6 -1.1
v -5.1 4.6 -1.2
v -5.1 4.6 -1.3
v -5.1 4.7 -0.1
v -5.1 4.7 -0.2
v -5.1 4.7 -0.5
v -5.1 4.7 -0.6
v -5.1 4.8 0.5
v -5.1 4.8 0.4
v -5.1 4.8 0.3
v -5.1 4.8 -0.2
v -5.1 4.8 -0.5
v -5.1 4.8 -1
v -5.1 4.8 -1.1
v -5.1 4.8 -1.2
v -5.1 5 0.4
v -5.1 5 0.3
v -5.1 5 0.1
v -5.1 5 -0.8
v -5.1 5 -1
v -5.1 5 -1.1
v -5.1 5.1 0.3
v -5.1 5.1 0.1
v -5.1 5.1 -0.8
v -5.1 5.1 -1
v -5.1 5.2 0.1
v -5.1 5.2 -0.8
v -5 3.1 -0.3
v -5 3.1 -0.4
v -5 3.2 -0.2
v -5 3.2 -0.3
v -5 3.2 -0.4
v -5 3.2 -0.5
v -5 3.3 -0.1
v -5 3.3 -0.2
v -5 3.3 -0.3
v -5 3.3 -0.4
v -5 3.3 -0.5
v -5 3.3 -0.6
v -5 3.4 5.96046e-008
v -5 3.4 -0.1
v -5 3.4 -0.2
v -5 3.4 -0.5
v -5 3.4 -0.6
v -5 3.4 -0.7
v -5 3.5 0.1
v -5 3.5 5.96046e-008
v -5 3.5 -0.1
v -5 3.5 -0.6
v -5 3.5 -0.7
v -5 3.5 -0.8
v -5 3.6 0.2
v -5 3.6 0.1
v -5 3.6 5.96046e-008
v -5 3.6 -0.7
v -5 3.6 -0.8
v -5 3.6 -0.9
v -5 3.7 0.3
v -5 3.7 0.2
v -5 3.7 0.1
v -5 3.7 -0.8
v -5 3.7 -0.9
v -5 3.7 -1
v -5 3.8 0.4
v -5 3.8 0.3
v -5 3.8 0.2
v -5 3.8 -0.9
v -5 3.8 -1
v -5 3.8 -1.1
v -5 4 0.5
v -5 4 0.4
v -5 4 0.3
v -5 4 -0.2
v -5 4 -0.5
v -5 4 -1
v -5 4 -1.1
v -5 4 -1.2
v -5 4.1 -0.1
v -5 4.1 -0.2
v -5 4.1 -0.5
v -5 4.1 -0.6
v -5 4.2 0.6
v -5 4.2 0.5
v -5 4.2 0.4
v -5 4.2 5.96046e-008
v -5 4.2 -0.1
v -5 4.2 -0.2
v -5 4.2 -0.5
v -5 4.2 -0.6
v -5 4.2 -0.7
v -5 4.2 -1.1
v -5 4.2 -1.2
v -5 4.2 -1.3
v -5 4.3 0.1
v -5 4.3 5.96046e-008
v -5 4.3 -0.1
v -5 4.3 -0.6
v -5 4.3 -0.7
v -5 4.3 -0.8
v -5 4.5 0.1
v -5 4.5 5.96046e-008
v -5 4.5 -0.1
v -5 4.5 -0.6
v -5 4.5 -0.7
v -5 4.5 -0.8
v -5 4.6 0.6
v -5 4.6 0.5
v -5 4.6 0.4
v -5 4.6 5.96046e-008
v -5 4.6 -0.1
v -5 4.6 -0.2
v -5 4.6 -0.5
v -5 4.6 -0.6
v -5 4.6 -0.7
v -5 4.6 -1.1
v -5 4.6 -1.2
v -5 4.6 -1.3
v -5 4.7 -0.1
v -5 4.7 -0.2
v -5 4.7 -0.5
v -5 4.7 -0.6
v -5 4.8 0.5
v -5 4.8 0.4
v -5 4.8 0.3
v -5 4.8 -0.2
v -5 4.8 -0.5
v -5 4.8 -1
v -5 4.8 -1.1
v -5 4.8 -1.2
v -5 5 0.4
v -5 5 0.3
v -5 5 0.1
v -5 5 -0.8
v -5 5 -1
v -5 5 -1.1
v -5 5.1 0.3
v -5 5.1 0.1
v -5 5.1 -0.8
v -5 5.1 -1
v -5 5.2 0.1
v -5 5.2 -0.8
v -5.1 4.2 0.6
v -5.1 4.6 0.6
v -5 4.2 0.6
v -5 4.6 0.6
v -5.1 4 0.5
v -5.1 4.2 0.5
v -5.1 4.6 0.5
v -5.1 4.8 0.5
v -5 4 0.5
v -5 4.2 0.5
v -5 4.6 0.5
v -5 4.8 0.5
v -5.1 3.8 0.4
v -5.1 4 0.4
v -5.1 4.8 0.4
v -5.1 5 0.4
v -5 3.8 0.4
v -5 4 0.4
v -5 4.8 0.4
v -5 5 0.4
v -5.1 3.7 0.3
v -5.1 3.8 0.3
v -5.1 5 0.3
v -5.1 5.1 0.3
v -5 3.7 0.3
v -5 3.8 0.3
v -5 5 0.3
v -5 5.1 0.3
v -5.1 3.6 0.2
v -5.1 3.7 0.2
v -5 3.6 0.2
v -5 3.7 0.2
v -5.1 3.5 0.1
v -5.1 3.6 0.1
v -5.1 5.1 0.1
v -5.1 5.2 0.1
v -5 3.5 0.1
v -5 3.6 0.1
v -5 5.1 0.1
v -5 5.2 0.1
v -5.1 3.4 5.96046e-008
v -5.1 3.5 5.96046e-008
v -5 3.4 5.96046e-008
v -5 3.5 5.96046e-008
v -5.1 3.3 -0.1
v -5.1 3.4 -0.1
v -5 3.3 -0.1
v -5 3.4 -0.1
v -5.1 3.2 -0.2
v -5.1 3.3 -0.2
v -5 3.2 -0.2
v -5 3.3 -0.2
v -5.1 3.1 -0.3
v -5.1 3.2 -0.3
v -5 3.1 -0.3
v -5 3.2 -0.3
v -5.1 4.1 -0.5
v -5.1 4.2 -0.5
v -5.1 4.6 -0.5
v -5.1 4.7 -0.5
v -5 4.1 -0.5
v -5 4.2 -0.5
v -5 4.6 -0.5
v -5 4.7 -0.5
v -5.1 4.2 -0.6
v -5.1 4.3 -0.6
v -5.1 4.5 -0.6
v -5.1 4.6 -0.6
v -5 4.2 -0.6
v -5 4.3 -0.6
v -5 4.5 -0.6
v -5 4.6 -0.6
v -5.1 4.3 -0.7
v -5.1 4.5 -0.7
v -5 4.3 -0.7
v -5 4.5 -0.7
v -5.1 4.3 5.96046e-008
v -5.1 4.5 5.96046e-008
v -5 4.3 5.96046e-008
v -5 4.5 5.96046e-008
v -5.1 4.2 -0.1
v -5.1 4.3 -0.1
v -5.1 4.5 -0.1
v -5.1 4.6 -0.1
v -5 4.2 -0.1
v -5 4.3 -0.1
v -5 4.5 -0.1
v -5 4.6 -0.1
v -5.1 4.1 -0.2
v -5.1 4.2 -0.2
v -5.1 4.6 -0.2
v -5.1 4.7 -0.2
v -5 4.1 -0.2
v -5 4.2 -0.2
v -5 4.6 -0.2
v -5 4.7 -0.2
v -5.1 3.1 -0.4
v -5.1 3.2 -0.4
v -5 3.1 -0.4
v -5 3.2 -0.4
v -5.1 3.2 -0.5
v -5.1 3.3 -0.5
v -5 3.2 -0.5
v -5 3.3 -0.5
v -5.1 3.3 -0.6
v -5.1 3.4 -0.6
v -5 3.3 -0.6
v -5 3.4 -0.6
v -5.1 3.4 -0.7
v -5.1 3.5 -0.7
v -5 3.4 -0.7
v -5 3.5 -0.7
v -5.1 3.5 -0.8
v -5.1 3.6 -0.8
v -5.1 5.1 -0.8
v -5.1 5.2 -0.8
v -5 3.5 -0.8
v -5 3.6 -0.8
v -5 5.1 -0.8
v -5 5.2 -0.8
v -5.1 3.6 -0.9
v -5.1 3.7 -0.9
v -5 3.6 -0.9
v -5 3.7 -0.9
v -5.1 3.7 -1
v -5.1 3.8 -1
v -5.1 5 -1
v -5.1 5.1 -1
v -5 3.7 -1
v -5 3.8 -1
v -5 5 -1
v -5 5.1 -1
v -5.1 3.8 -1.1
v -5.1 4 -1.1
v -5.1 4.8 -1.1
v -5.1 5 -1.1
v -5 3.8 -1.1
v -5 4 -1.1
v -5 4.8 -1.1
v -5 5 -1.1
v -5.1 4 -1.2
v -5.1 4.2 -1.2
v -5.1 4.6 -1.2
v -5.1 4.8 -1.2
v -5 4 -1.2
v -5 4.2 -1.2
v -5 4.6 -1.2
v -5 4.8 -1.2
v -5.1 4.2 -1.3
v -5.1 4.6 -1.3
v -5 4.2 -1.3
v -5 4.6 -1.3
v -5.1 3.1 -0.3
v -5 3.1 -0.3
v -5.1 3.1 -0.4
v -5 3.1 -0.4
v -5.1 3.2 -0.2
v -5 3.2 -0.2
v -5.1 3.2 -0.3
v -5 3.2 -0.3
v -5.1 3.2 -0.4
v -5 3.2 -0.4
v -5.1 3.2 -0.5
v -5 3.2 -0.5
v -5.1 3.3 -0.1
v -5 3.3 -0.1
v -5.1 3.3 -0.2
v -5 3.3 -0.2
v -5.1 3.3 -0.5
v -5 3.3 -0.5
v -5.1 3.3 -0.6
v -5 3.3 -0.6
v -5.1 3.4 5.96046e-008
v -5 3.4 5.96046e-008
v -5.1 3.4 -0.1
v -5 3.4 -0.1
v -5.1 3.4 -0.6
v -5 3.4 -0.6
v -5.1 3.4 -0.7
v -5 3.4 -0.7
v -5.1 3.5 0.1
v -5 3.5 0.1
v -5.1 3.5 5.96046e-008
v -5 3.5 5.96046e-008
v -5.1 3.5 -0.7
v -5 3.5 -0.7
v -5.1 3.5 -0.8
v -5 3.5 -0.8
v -5.1 3.6 0.2
v -5 3.6 0.2
v -5.1 3.6 0.1
v -5 3.6 0.1
v -5.1 3.6 -0.8
v -5 3.6 -0.8
v -5.1 3.6 -0.9
v -5 3.6 -0.9
v -5.1 3.7 0.3
v -5 3.7 0.3
v -5.1 3.7 0.2
v -5 3.7 0.2
v -5.1 3.7 -0.9
v -5 3.7 -0.9
v -5.1 3.7 -1
v -5 3.7 -1
v -5.1 3.8 0.4
v -5 3.8 0.4
v -5.1 3.8 0.3
v -5 3.8 0.3
v -5.1 3.8 -1
v -5 3.8 -1
v -5.1 3.8 -1.1
v -5 3.8 -1.1
v -5.1 4 0.5
v -5 4 0.5
v -5.1 4 0.4
v -5 4 0.4
v -5.1 4 -1.1
v -5 4 -1.1
v -5.1 4 -1.2
v -5 4 -1.2
v -5.1 4.2 0.6
v -5 4.2 0.6
v -5.1 4.2 0.5
v -5 4.2 0.5
v -5.1 4.2 -1.2
v -5 4.2 -1.2
v -5.1 4.2 -1.3
v -5 4.2 -1.3
v -5.1 4.5 5.96046e-008
v -5 4.5 5.96046e-008
v -5.1 4.5 -0.1
v -5 4.5 -0.1
v -5.1 4.5 -0.6
v -5 4.5 -0.6
v -5.1 4.5 -0.7
v -5 4.5 -0.7
v -5.1 4.6 -0.1
v -5 4.6 -0.1
v -5.1 4.6 -0.2
v -5 4.6 -0.2
v -5.1 4.6 -0.5
v -5 4.6 -0.5
v -5.1 4.6 -0.6
v -5 4.6 -0.6
v -5.1 4.7 -0.2
v -5 4.7 -0.2
v -5.1 4.7 -0.5
v -5 4.7 -0.5
v -5.1 4.1 -0.2
v -5 4.1 -0.2
v -5.1 4.1 -0.5
v -5 4.1 -0.5
v -5.1 4.2 -0.1
v -5 4.2 -0.1
v -5.1 4.2 -0.2
v -5 4.2 -0.2
v -5.1 4.2 -0.5
v -5 4.2 -0.5
v -5.1 4.2 -0.6
v -5 4.2 -0.6
v -5.1 4.3 5.96046e-008
v -5 4.3 5.96046e-008
v -5.1 4.3 -0.1
v -5 4.3 -0.1
v -5.1 4.3 -0.6
v -5 4.3 -0.6
v -5.1 4.3 -0.7
v -5 4.3 -0.7
v -5.1 4.6 0.6
v -5 4.6 0.6
v -5.1 4.6 0.5
v -5 4.6 0.5
v -5.1 4.6 -1.2
v -5 4.6 -1.2
v -5.1 4.6 -1.3
v -5 4.6 -1.3
v -5.1 4.8 0.5
v -5 4.8 0.5
v -5.1 4.8 0.4
v -5 4.8 0.4
v -5.1 4.8 -1.1
v -5 4.8 -1.1
v -5.1 4.8 -1.2
v -5 4.8 -1.2
v -5.1 5 0.4
v -5 5 0.4
v -5.1 5 0.3
v -5 5 0.3
v -5.1 5 -1
v -5 5 -1
v -5.1 5 -1.1
v -5 5 -1.1
v -5.1 5.1 0.3
v -5 5.1 0.3
v -5.1 5.1 0.1
v -5 5.1 0.1
v -5.1 5.1 -0.8
v -5 5.1 -0.8
v -5.1 5.1 -1
v -5 5.1 -1
v -5.1 5.2 0.1
v -5 5.2 0.1
v -5.1 5.2 -0.8
v -5 5.2 -0.8

# faces
f 4/2/1 2/2/1 1/2/1
f 5/2/1 2/2/1 4/2/1
f 8/2/1 4/2/1 3/2/1
f 9/1/1 5/1/1 4/1/1
f 9/2/1 4/2/1 8/2/1
f 10/2/1 6/2/1 5/2/1
f 10/1/1 5/1/1 9/1/1
f 11/2/1 6/2/1 10/2/1
f 14/2/1 8/2/1 7/2/1
f 15/1/1 9/1/1 8/1/1
f 15/1/1 10/1/1 9/1/1
f 15/2/1 8/2/1 14/2/1
f 15/1/1 11/1/1 10/1/1
f 16/2/1 12/2/1 11/2/1
f 16/1/1 11/1/1 15/1/1
f 17/2/1 12/2/1 16/2/1
f 20/2/1 14/2/1 13/2/1
f 21/1/1 15/1/1 14/1/1
f 21/1/1 16/1/1 15/1/1
f 21/2/1 14/2/1 20/2/1
f 21/1/1 17/1/1 16/1/1
f 22/2/1 18/2/1 17/2/1
f 22/1/1 17/1/1 21/1/1
f 23/2/1 18/2/1 22/2/1
f 26/2/1 20/2/1 19/2/1
f 27/1/1 21/1/1 20/1/1
f 27/1/1 22/1/1 21/1/1
f 27/2/1 20/2/1 26/2/1
f 27/1/1 23/1/1 22/1/1
f 28/2/1 24/2/1 23/2/1
f 28/1/1 23/1/1 27/1/1
f 29/2/1 24/2/1 28/2/1
f 32/2/1 26/2/1 25/2/1
f 33/1/1 27/1/1 26/1/1
f 33/1/1 28/1/1 27/1/1
f 33/2/1 26/2/1 32/2/1
f 33/1/1 29/1/1 28/1/1
f 34/2/1 30/2/1 29/2/1
f 34/1/1 29/1/1 33/1/1
f 35/2/1 30/2/1 34/2/1
f 38/2/1 32/2/1 31/2/1
f 39/1/1 33/1/1 32/1/1
f 39/1/1 34/1/1 33/1/1
f 39/2/1 32/2/1 38/2/1
f 39/1/1 35/1/1 34/1/1
f 40/2/1 36/2/1 35/2/1
f 40/1/1 35/1/1 39/1/1
f 41/2/1 36/2/1 40/2/1
f 44/2/1 38/2/1 37/2/1
f 45/1/1 39/1/1 38/1/1
f 45/1/1 40/1/1 39/1/1
f 45/2/1 38/2/1 44/2/1
f 45/1/1 41/1/1 40/1/1
f 46/1/1 41/1/1 45/1/1
f 47/1/1 41/1/1 46/1/1
f 48/2/1 42/2/1 41/2/1
f 48/1/1 41/1/1 47/1/1
f 49/2/1 42/2/1 48/2/1
f 51/1/1 45/1/1 44/1/1
f 51/1/1 46/1/1 45/1/1
f 52/2/1 47/2/1 46/2/1
f 52/1/1 46/1/1 51/1/1
f 53/1/1 49/1/1 48/1/1
f 53/2/1 47/2/1 52/2/1
f 53/1/1 48/1/1 47/1/1
f 54/1/1 49/1/1 53/1/1
f 56/2/1 44/2/1 43/2/1
f 57/1/1 51/1/1 44/1/1
f 57/2/1 44/2/1 56/2/1
f 58/1/1 51/1/1 57/1/1
f 59/2/1 52/2/1 51/2/1
f 59/1/1 51/1/1 58/1/1
f 60/2/1 52/2/1 59/2/1
f 61/2/1 54/2/1 53/2/1
f 62/1/1 49/1/1 54/1/1
f 62/2/1 54/2/1 61/2/1
f 63/1/1 49/1/1 62/1/1
f 64/2/1 50/2/1 49/2/1
f 64/1/1 49/1/1 63/1/1
f 65/2/1 50/2/1 64/2/1
f 67/1/1 58/1/1 57/1/1
f 67/1/1 57/1/1 56/1/1
f 68/2/1 59/2/1 58/2/1
f 68/1/1 58/1/1 67/1/1
f 69/2/1 59/2/1 68/2/1
f 70/2/1 63/2/1 62/2/1
f 71/1/1 65/1/1 64/1/1
f 71/2/1 63/2/1 70/2/1
f 71/1/1 64/1/1 63/1/1
f 72/1/1 65/1/1 71/1/1
f 73/2/1 68/2/1 67/2/1
f 73/1/1 67/1/1 56/1/1
f 74/2/1 68/2/1 73/2/1
f 77/2/1 72/2/1 71/2/1
f 78/1/1 65/1/1 72/1/1
f 78/2/1 72/2/1 77/2/1
f 79/2/1 56/2/1 55/2/1
f 80/1/1 73/1/1 56/1/1
f 80/2/1 56/2/1 79/2/1
f 80/1/1 74/1/1 73/1/1
f 81/1/1 74/1/1 80/1/1
f 82/2/1 75/2/1 74/2/1
f 82/1/1 74/1/1 81/1/1
f 83/2/1 75/2/1 82/2/1
f 86/2/1 77/2/1 76/2/1
f 87/1/1 78/1/1 77/1/1
f 87/2/1 77/2/1 86/2/1
f 88/1/1 65/1/1 78/1/1
f 88/1/1 78/1/1 87/1/1
f 89/2/1 66/2/1 65/2/1
f 89/1/1 65/1/1 88/1/1
f 90/2/1 66/2/1 89/2/1
f 91/2/1 84/2/1 83/2/1
f 91/1/1 82/1/1 81/1/1
f 91/1/1 83/1/1 82/1/1
f 92/2/1 84/2/1 91/2/1
f 93/2/1 86/2/1 85/2/1
f 94/1/1 87/1/1 86/1/1
f 94/1/1 88/1/1 87/1/1
f 94/2/1 86/2/1 93/2/1
f 95/2/1 81/2/1 80/2/1
f 96/1/1 92/1/1 91/1/1
f 96/2/1 81/2/1 95/2/1
f 96/1/1 91/1/1 81/1/1
f 97/1/1 92/1/1 96/1/1
f 98/2/1 93/2/1 92/2/1
f 98/1/1 92/1/1 97/1/1
f 99/1/1 94/1/1 93/1/1
f 99/2/1 93/2/1 98/2/1
f 100/1/1 88/1/1 94/1/1
f 100/1/1 94/1/1 99/1/1
f 101/2/1 89/2/1 88/2/1
f 101/1/1 88/1/1 100/1/1
f 102/2/1 89/2/1 101/2/1
f 103/2/1 97/2/1 96/2/1
f 104/1/1 99/1/1 98/1/1
f 104/2/1 97/2/1 103/2/1
f 104/1/1 100/1/1 99/1/1
f 104/1/1 98/1/1 97/1/1
f 105/1/1 100/1/1 104/1/1
f 106/1/1 100/1/1 105/1/1
f 107/2/1 101/2/1 100/2/1
f 107/1/1 100/1/1 106/1/1
f 108/2/1 101/2/1 107/2/1
f 109/2/1 105/2/1 104/2/1
f 110/1/1 106/1/1 105/1/1
f 110/2/1 105/2/1 109/2/1
f 111/2/1 107/2/1 106/2/1
f 111/1/1 106/1/1 110/1/1
f 112/2/1 107/2/1 111/2/1
f 113/2/1 111/2/1 110/2/1
f 114/2/1 111/2/1 113/2/1
f 115/2/2 116/2/2 118/2/2
f 118/2/2 116/2/2 119/2/2
f 117/2/2 118/2/2 122/2/2
f 118/1/2 119/1/2 123/1/2
f 122/2/2 118/2/2 123/2/2
f 119/2/2 120/2/2 124/2/2
f 123/1/2 119/1/2 124/1/2
f 124/2/2 120/2/2 125/2/2
f 121/2/2 122/2/2 128/2/2
f 122/1/2 123/1/2 129/1/2
f 123/1/2 124/1/2 129/1/2
f 128/2/2 122/2/2 129/2/2
f 124/1/2 125/1/2 129/1/2
f 125/2/2 126/2/2 130/2/2
f 129/1/2 125/1/2 130/1/2
f 130/2/2 126/2/2 131/2/2
f 127/2/2 128/2/2 134/2/2
f 128/1/2 129/1/2 135/1/2
f 129/1/2 130/1/2 135/1/2
f 134/2/2 128/2/2 135/2/2
f 130/1/2 131/1/2 135/1/2
f 131/2/2 132/2/2 136/2/2
f 135/1/2 131/1/2 136/1/2
f 136/2/2 132/2/2 137/2/2
f 133/2/2 134/2/2 140/2/2
f 134/1/2 135/1/2 141/1/2
f 135/1/2 136/1/2 141/1/2
f 140/2/2 134/2/2 141/2/2
f 136/1/2 137/1/2 141/1/2
f 137/2/2 138/2/2 142/2/2
f 141/1/2 137/1/2 142/1/2
f 142/2/2 138/2/2 143/2/2
f 139/2/2 140/2/2 146/2/2
f 140/1/2 141/1/2 147/1/2
f 141/1/2 142/1/2 147/1/2
f 146/2/2 140/2/2 147/2/2
f 142/1/2 143/1/2 147/1/2
f 143/2/2 144/2/2 148/2/2
f 147/1/2 143/1/2 148/1/2
f 148/2/2 144/2/2 149/2/2
f 145/2/2 146/2/2 152/2/2
f 146/1/2 147/1/2 153/1/2
f 147/1/2 148/1/2 153/1/2
f 152/2/2 146/2/2 153/2/2
f 148/1/2 149/1/2 153/1/2
f 149/2/2 150/2/2 154/2/2
f 153/1/2 149/1/2 154/1/2
f 154/2/2 150/2/2 155/2/2
f 151/2/2 152/2/2 158/2/2
f 152/1/2 153/1/2 159/1/2
f 153/1/2 154/1/2 159/1/2
f 158/2/2 152/2/2 159/2/2
f 154/1/2 155/1/2 159/1/2
f 159/1/2 155/1/2 160/1/2
f 160/1/2 155/1/2 161/1/2
f 155/2/2 156/2/2 162/2/2
f 161/1/2 155/1/2 162/1/2
f 162/2/2 156/2/2 163/2/2
f 158/1/2 159/1/2 165/1/2
f 159/1/2 160/1/2 165/1/2
f 160/2/2 161/2/2 166/2/2
f 165/1/2 160/1/2 166/1/2
f 162/1/2 163/1/2 167/1/2
f 166/2/2 161/2/2 167/2/2
f 161/1/2 162/1/2 167/1/2
f 167/1/2 163/1/2 168/1/2
f 157/2/2 158/2/2 170/2/2
f 158/1/2 165/1/2 171/1/2
f 170/2/2 158/2/2 171/2/2
f 171/1/2 165/1/2 172/1/2
f 165/2/2 166/2/2 173/2/2
f 172/1/2 165/1/2 173/1/2
f 173/2/2 166/2/2 174/2/2
f 167/2/2 168/2/2 175/2/2
f 168/1/2 163/1/2 176/1/2
f 175/2/2 168/2/2 176/2/2
f 176/1/2 163/1/2 177/1/2
f 163/2/2 164/2/2 178/2/2
f 177/1/2 163/1/2 178/1/2
f 178/2/2 164/2/2 179/2/2
f 171/1/2 172/1/2 181/1/2
f 170/1/2 171/1/2 181/1/2
f 172/2/2 173/2/2 182/2/2
f 181/1/2 172/1/2 182/1/2
f 182/2/2 173/2/2 183/2/2
f 176/2/2 177/2/2 184/2/2
f 178/1/2 179/1/2 185/1/2
f 184/2/2 177/2/2 185/2/2
f 177/1/2 178/1/2 185/1/2
f 185/1/2 179/1/2 186/1/2
f 181/2/2 182/2/2 187/2/2
f 170/1/2 181/1/2 187/1/2
f 187/2/2 182/2/2 188/2/2
f 185/2/2 186/2/2 191/2/2
f 186/1/2 179/1/2 192/1/2
f 191/2/2 186/2/2 192/2/2
f 169/2/2 170/2/2 193/2/2
f 170/1/2 187/1/2 194/1/2
f 193/2/2 170/2/2 194/2/2
f 187/1/2 188/1/2 194/1/2
f 194/1/2 188/1/2 195/1/2
f 188/2/2 189/2/2 196/2/2
f 195/1/2 188/1/2 196/1/2
f 196/2/2 189/2/2 197/2/2
f 190/2/2 191/2/2 200/2/2
f 191/1/2 192/1/2 201/1/2
f 200/2/2 191/2/2 201/2/2
f 192/1/2 179/1/2 202/1/2
f 201/1/2 192/1/2 202/1/2
f 179/2/2 180/2/2 203/2/2
f 202/1/2 179/1/2 203/1/2
f 203/2/2 180/2/2 204/2/2
f 197/2/2 198/2/2 205/2/2
f 195/1/2 196/1/2 205/1/2
f 196/1/2 197/1/2 205/1/2
f 205/2/2 198/2/2 206/2/2
f 199/2/2 200/2/2 207/2/2
f 200/1/2 201/1/2 208/1/2
f 201/1/2 202/1/2 208/1/2
f 207/2/2 200/2/2 208/2/2
f 194/2/2 195/2/2 209/2/2
f 205/1/2 206/1/2 210/1/2
f 209/2/2 195/2/2 210/2/2
f 195/1/2 205/1/2 210/1/2
f 210/1/2 206/1/2 211/1/2
f 206/2/2 207/2/2 212/2/2
f 211/1/2 206/1/2 212/1/2
f 207/1/2 208/1/2 213/1/2
f 212/2/2 207/2/2 213/2/2
f 208/1/2 202/1/2 214/1/2
f 213/1/2 208/1/2 214/1/2
f 202/2/2 203/2/2 215/2/2
f 214/1/2 202/1/2 215/1/2
f 215/2/2 203/2/2 216/2/2
f 210/2/2 211/2/2 217/2/2
f 212/1/2 213/1/2 218/1/2
f 217/2/2 211/2/2 218/2/2
f 213/1/2 214/1/2 218/1/2
f 211/1/2 212/1/2 218/1/2
f 218/1/2 214/1/2 219/1/2
f 219/1/2 214/1/2 220/1/2
f 214/2/2 215/2/2 221/2/2
f 220/1/2 214/1/2 221/1/2
f 221/2/2 215/2/2 222/2/2
f 218/2/2 219/2/2 223/2/2
f 219/1/2 220/1/2 224/1/2
f 223/2/2 219/2/2 224/2/2
f 220/2/2 221/2/2 225/2/2
f 224/1/2 220/1/2 225/1/2
f 225/2/2 221/2/2 226/2/2
f 224/2/2 225/2/2 227/2/2
f 227/2/2 225/2/2 228/2/2
f 231/2/3 230/2/3 229/2/3
f 232/2/3 230/2/3 231/2/3
f 237/2/3 234/2/3 233/2/3
f 238/2/3 234/2/3 237/2/3
f 239/2/3 236/2/3 235/2/3
f 240/2/3 236/2/3 239/2/3
f 245/2/3 242/2/3 241/2/3
f 246/2/3 242/2/3 245/2/3
f 247/2/3 244/2/3 243/2/3
f 248/2/3 244/2/3 247/2/3
f 253/2/3 250/2/3 249/2/3
f 254/2/3 250/2/3 253/2/3
f 255/2/3 252/2/3 251/2/3
f 256/2/3 252/2/3 255/2/3
f 259/2/3 258/2/3 257/2/3
f 260/2/3 258/2/3 259/2/3
f 265/2/3 262/2/3 261/2/3
f 266/2/3 262/2/3 265/2/3
f 267/2/3 264/2/3 263/2/3
f 268/2/3 264/2/3 267/2/3
f 271/2/3 270/2/3 269/2/3
f 272/2/3 270/2/3 271/2/3
f 275/2/3 274/2/3 273/2/3
f 276/2/3 274/2/3 275/2/3
f 279/2/3 278/2/3 277/2/3
f 280/2/3 278/2/3 279/2/3
f 283/2/3 282/2/3 281/2/3
f 284/2/3 282/2/3 283/2/3
f 289/2/3 286/2/3 285/2/3
f 290/2/3 286/2/3 289/2/3
f 291/2/3 288/2/3 287/2/3
f 292/2/3 288/2/3 291/2/3
f 297/2/3 294/2/3 293/2/3
f 298/2/3 294/2/3 297/2/3
f 299/2/3 296/2/3 295/2/3
f 300/2/3 296/2/3 299/2/3
f 303/2/3 302/2/3 301/2/3
f 304/2/3 302/2/3 303/2/3
f 305/2/4 306/2/4 307/2/4
f 307/2/4 306/2/4 308/2/4
f 309/2/4 310/2/4 313/2/4
f 313/2/4 310/2/4 314/2/4
f 311/2/4 312/2/4 315/2/4
f 315/2/4 312/2/4 316/2/4
f 317/2/4 318/2/4 321/2/4
f 321/2/4 318/2/4 322/2/4
f 319/2/4 320/2/4 323/2/4
f 323/2/4 320/2/4 324/2/4
f 325/2/4 326/2/4 327/2/4
f 327/2/4 326/2/4 328/2/4
f 329/2/4 330/2/4 331/2/4
f 331/2/4 330/2/4 332/2/4
f 333/2/4 334/2/4 335/2/4
f 335/2/4 334/2/4 336/2/4
f 337/2/4 338/2/4 339/2/4
f 339/2/4 338/2/4 340/2/4
f 341/2/4 342/2/4 345/2/4
f 345/2/4 342/2/4 346/2/4
f 343/2/4 344/2/4 347/2/4
f 347/2/4 344/2/4 348/2/4
f 349/2/4 350/2/4 351/2/4
f 351/2/4 350/2/4 352/2/4
f 353/2/4 354/2/4 357/2/4
f 357/2/4 354/2/4 358/2/4
f 355/2/4 356/2/4 359/2/4
f 359/2/4 356/2/4 360/2/4
f 361/2/4 362/2/4 365/2/4
f 365/2/4 362/2/4 366/2/4
f 363/2/4 364/2/4 367/2/4
f 367/2/4 364/2/4 368/2/4
f 369/2/4 370/2/4 373/2/4
f 373/2/4 370/2/4 374/2/4
f 371/2/4 372/2/4 375/2/4
f 375/2/4 372/2/4 376/2/4
f 377/2/4 378/2/4 379/2/4
f 379/2/4 378/2/4 380/2/4
f 383/2/5 382/2/5 381/2/5
f 384/2/5 382/2/5 383/2/5
f 387/2/5 386/2/5 385/2/5
f 388/2/5 386/2/5 387/2/5
f 391/2/5 390/2/5 389/2/5
f 392/2/5 390/2/5 391/2/5
f 395/2/5 394/2/5 393/2/5
f 396/2/5 394/2/5 395/2/5
f 399/2/5 398/2/5 397/2/5
f 400/2/5 398/2/5 399/2/5
f 403/2/5 402/2/5 401/2/5
f 404/2/5 402/2/5 403/2/5
f 407/2/5 406/2/5 405/2/5
f 408/2/5 406/2/5 407/2/5
f 411/2/5 410/2/5 409/2/5
f 412/2/5 410/2/5 411/2/5
f 415/2/5 414/2/5 413/2/5
f 416/2/5 414/2/5 415/2/5
f 419/2/5 418/2/5 417/2/5
f 420/2/5 418/2/5 419/2/5
f 423/2/5 422/2/5 421/2/5
f 424/2/5 422/2/5 423/2/5
f 427/2/5 426/2/5 425/2/5
f 428/2/5 426/2/5 427/2/5
f 431/2/5 430/2/5 429/2/5
f 432/2/5 430/2/5 431/2/5
f 435/2/5 434/2/5 433/2/5
f 436/2/5 434/2/5 435/2/5
f 439/2/5 438/2/5 437/2/5
f 440/2/5 438/2/5 439/2/5
f 443/2/5 442/2/5 441/2/5
f 444/2/5 442/2/5 443/2/5
f 447/2/5 446/2/5 445/2/5
f 448/2/5 446/2/5 447/2/5
f 451/2/5 450/2/5 449/2/5
f 452/2/5 450/2/5 451/2/5
f 455/2/5 454/2/5 453/2/5
f 456/2/5 454/2/5 455/2/5
f 459/2/5 458/2/5 457/2/5
f 460/2/5 458/2/5 459/2/5
f 463/2/5 462/2/5 461/2/5
f 464/2/5 462/2/5 463/2/5
f 467/2/5 466/2/5 465/2/5
f 468/2/5 466/2/5 467/2/5
f 471/2/5 470/2/5 469/2/5
f 472/2/5 470/2/5 471/2/5
f 475/2/5 474/2/5 473/2/5
f 476/2/5 474/2/5 475/2/5
f 477/2/6 478/2/6 479/2/6
f 479/2/6 478/2/6 480/2/6
f 481/2/6 482/2/6 483/2/6
f 483/2/6 482/2/6 484/2/6
f 485/2/6 486/2/6 487/2/6
f 487/2/6 486/2/6 488/2/6
f 489/2/6 490/2/6 491/2/6
f 491/2/6 490/2/6 492/2/6
f 493/2/6 494/2/6 495/2/6
f 495/2/6 494/2/6 496/2/6
f 497/2/6 498/2/6 499/2/6
f 499/2/6 498/2/6 500/2/6
f 501/2/6 502/2/6 503/2/6
f 503/2/6 502/2/6 504/2/6
f 505/2/6 506/2/6 507/2/6
f 507/2/6 506/2/6 508/2/6
f 509/2/6 510/2/6 511/2/6
f 511/2/6 510/2/6 512/2/6
f 513/2/6 514/2/6 515/2/6
f 515/2/6 514/2/6 516/2/6
f 517/2/6 518/2/6 519/2/6
f 519/2/6 518/2/6 520/2/6
f 521/2/6 522/2/6 523/2/6
f 523/2/6 522/2/6 524/2/6
f 525/2/6 526/2/6 527/2/6
f 527/2/6 526/2/6 528/2/6
f 529/2/6 530/2/6 531/2/6
f 531/2/6 530/2/6 532/2/6
